<?xml version="1.0" standalone="no"?><!DOCTYPE svg PUBLIC "-//W3C//DTD SVG 1.1//EN" "http://www.w3.org/Graphics/SVG/1.1/DTD/svg11.dtd"><svg t="1572271327242" class="icon" viewBox="0 0 1024 1024" version="1.1" xmlns="http://www.w3.org/2000/svg" p-id="10875" xmlns:xlink="http://www.w3.org/1999/xlink" width="200" height="200"><defs><style type="text/css"></style></defs><path d="M281.375 832.625C343.25 877.625 427.625 905.75 512 905.75c84.375 0 168.75-28.125 230.625-73.125-16.875-33.75-33.75-61.875-61.875-90-22.5-22.5-50.625-39.375-84.375-50.625h-5.625c-22.5 11.25-50.625 16.875-78.75 16.875-28.125 0-56.25-5.625-84.375-11.25-22.5 5.625-45 16.875-67.5 33.75-33.75 16.875-61.875 56.25-78.75 101.25z m-39.375-33.75c22.5-45 56.25-84.375 95.625-118.125 11.25-11.25 28.125-16.875 39.375-28.125-16.875-11.25-33.75-33.75-45-56.25-22.5-39.375-33.75-84.375-28.125-129.375 5.625-95.625 84.375-180 180-196.875H512c28.125 0 56.25 5.625 78.75 16.875 33.75 16.875 61.875 33.75 84.375 67.5 22.5 28.125 39.375 61.875 45 101.25 5.625 39.375 0 78.75-11.25 118.125-11.25 33.75-33.75 67.5-61.875 90 22.5 11.25 45 28.125 67.5 45 28.125 28.125 50.625 61.875 67.5 95.625C855.125 725.75 905.75 624.5 905.75 512c0-219.375-174.375-393.75-393.75-393.75S118.25 292.625 118.25 512c0 112.5 50.625 213.75 123.75 286.875zM512 962c-247.5 0-450-202.5-450-450s202.5-450 450-450 450 202.5 450 450-202.5 450-450 450z m-67.5-320.625c22.5 11.25 50.625 11.25 73.125 11.25 28.125 0 50.625-5.625 73.125-16.875 33.75-16.875 61.875-50.625 73.125-84.375 11.25-28.125 11.25-61.875 11.25-95.625-5.625-28.125-16.875-56.25-33.75-78.75-33.75-33.75-73.125-56.25-123.75-56.25-45 0-95.625 16.875-123.75 50.625-50.625 56.25-61.875 135-22.5 202.5 16.875 28.125 39.375 50.625 73.125 67.5z" p-id="10876"></path></svg>