<?xml version="1.0" standalone="no"?><!DOCTYPE svg PUBLIC "-//W3C//DTD SVG 1.1//EN" "http://www.w3.org/Graphics/SVG/1.1/DTD/svg11.dtd"><svg t="1572681583304" class="icon" viewBox="0 0 1024 1024" version="1.1" xmlns="http://www.w3.org/2000/svg" p-id="42683" xmlns:xlink="http://www.w3.org/1999/xlink" width="200" height="200"><defs><style type="text/css"></style></defs><path d="M921.6 409.6h10.24a30.72 30.72 0 0 1 30.72 30.72v143.36a30.72 30.72 0 0 1-30.72 30.72H921.6a20.48 20.48 0 0 0-20.48 20.48v20.48a122.88 122.88 0 0 1-122.88 122.88H184.32a122.88 122.88 0 0 1-122.88-122.88V368.64a122.88 122.88 0 0 1 122.88-122.88h593.92a122.88 122.88 0 0 1 122.88 122.88v20.48a20.48 20.48 0 0 0 20.48 20.48zM184.32 327.68a40.96 40.96 0 0 0-40.96 40.96v286.72a40.96 40.96 0 0 0 40.96 40.96h593.92a40.96 40.96 0 0 0 40.96-40.96V368.64a40.96 40.96 0 0 0-40.96-40.96H184.32z m40.96 61.44h435.8144a20.48 20.48 0 0 1 19.41504 14.00832l68.25984 204.8A20.48 20.48 0 0 1 729.35424 634.88H225.28a20.48 20.48 0 0 1-20.48-20.48V409.6a20.48 20.48 0 0 1 20.48-20.48z" p-id="42684"></path></svg>