<?xml version="1.0" standalone="no"?><!DOCTYPE svg PUBLIC "-//W3C//DTD SVG 1.1//EN" "http://www.w3.org/Graphics/SVG/1.1/DTD/svg11.dtd"><svg t="1572681635034" class="icon" viewBox="0 0 1024 1024" version="1.1" xmlns="http://www.w3.org/2000/svg" p-id="42801" xmlns:xlink="http://www.w3.org/1999/xlink" width="200" height="200"><defs><style type="text/css"></style></defs><path d="M449.2288 574.7712c104.3456 104.3456 198.5536 121.0368 229.1712 90.4192 51.0976-51.0976 134.3488-50.66752 185.9584 0.94208l73.8304 73.80992c32.256 32.256 32.52224 84.29568 0.59392 116.24448l-68.4032 68.36224c-25.27232 25.2928-60.1088 38.2976-95.8464 38.01088-120.0128-1.024-282.17344-113.3568-440.95488-272.13824C174.7968 531.64032 62.44352 369.50016 61.44 249.4464c-0.28672-35.71712 12.6976-70.5536 38.01088-95.8464l68.36224-68.38272c31.9488-31.9488 83.968-31.66208 116.24448 0.59392l73.80992 73.80992c51.6096 51.6096 52.0192 134.88128 0.94208 185.9584-30.6176 30.63808-13.9264 124.84608 90.4192 229.19168z" p-id="42802"></path></svg>