<?xml version="1.0" standalone="no"?><!DOCTYPE svg PUBLIC "-//W3C//DTD SVG 1.1//EN" "http://www.w3.org/Graphics/SVG/1.1/DTD/svg11.dtd"><svg t="1572681562721" class="icon" viewBox="0 0 1024 1024" version="1.1" xmlns="http://www.w3.org/2000/svg" p-id="42565" xmlns:xlink="http://www.w3.org/1999/xlink" width="200" height="200"><defs><style type="text/css"></style></defs><path d="M222.72 573.44h30.9248a61.44 61.44 0 0 1 61.44 61.44v204.8a61.44 61.44 0 0 1-61.44 61.44H184.32a61.44 61.44 0 0 1-60.39552-72.76544l38.4-204.8A61.44 61.44 0 0 1 222.72 573.44z m290.93888-245.76h26.70592a61.44 61.44 0 0 1 61.44 61.44v450.56a61.44 61.44 0 0 1-61.44 61.44h-74.97728a61.44 61.44 0 0 1-61.09184-67.9936l48.27136-450.56A61.44 61.44 0 0 1 513.65888 327.68zM801.95584 122.88h25.12896a61.44 61.44 0 0 1 61.44 61.44v655.36a61.44 61.44 0 0 1-61.44 61.44h-76.88192a61.44 61.44 0 0 1-61.2352-66.27328l51.73248-655.36A61.44 61.44 0 0 1 801.93536 122.88z" p-id="42566"></path></svg>